# xmcd CD database file
#
# Track frame offsets:
#	150
#	17051
#	28518
#	48504
#	61752
#	77200
#	97497
#	111815
#	131676
#	150673
#	166648
#	183841
#	203557
#	217585
#	234807
#	248998
#	270524
#	283188
#	306200
#	326599
#
# Disc length: 4572 seconds
#
# Revision: 1
# Processed by: cddbd v1.5.2PL0 Copyright (c) Steve Scherf et al.
# Submitted via: CDex 1.51
#
DISCID=0811da14
DTITLE=The Real Book Play-Along - Volume I L-R CD1
DYEAR=1900
DGENRE=Jazz
TTITLE0=Lady Bird
TTITLE1=Lady Sings the Blues
TTITLE2=Lament
TTITLE3=Lazy Bird
TTITLE4=Lazy River
TTITLE5=Like Someone in Love
TTITLE6=Limehouse Blues
TTITLE7=Little Boat
TTITLE8=Little Waltz
TTITLE9=Long Ago (And Far Away)
TTITLE10=Love Is the Sweetest Thing
TTITLE11=Lucky Southern
TTITLE12=Lullaby of Birdland
TTITLE13=Lush Life
TTITLE14=Mahjong
TTITLE15=Maiden Voyage
TTITLE16=A Man and a Woman (Un Homme et une Femme)
TTITLE17=Meditation (Meditacão)
TTITLE18=Milano
TTITLE19=Mr. P.C.
EXTD=
EXTT0=
EXTT1=
EXTT2=
EXTT3=
EXTT4=
EXTT5=
EXTT6=
EXTT7=
EXTT8=
EXTT9=
EXTT10=
EXTT11=
EXTT12=
EXTT13=
EXTT14=
EXTT15=
EXTT16=
EXTT17=
EXTT18=
EXTT19=
PLAYORDER=
